<?xml version="1.0" encoding="UTF-8" standalone="no"?>
<!-- Created with Inkscape (http://www.inkscape.org/) -->

<svg
   xmlns:dc="http://purl.org/dc/elements/1.1/"
   xmlns:cc="http://creativecommons.org/ns#"
   xmlns:rdf="http://www.w3.org/1999/02/22-rdf-syntax-ns#"
   xmlns:svg="http://www.w3.org/2000/svg"
   xmlns="http://www.w3.org/2000/svg"
   version="1.1"
   width="403.60379"
   height="145.15401"
   id="svg3123">
  <defs
     id="defs3125" />
  <metadata
     id="metadata3128">
    <rdf:RDF>
      <cc:Work
         rdf:about="">
        <dc:format>image/svg+xml</dc:format>
        <dc:type
           rdf:resource="http://purl.org/dc/dcmitype/StillImage" />
        <dc:title></dc:title>
      </cc:Work>
    </rdf:RDF>
  </metadata>
  <g
     transform="matrix(0.27082114,0,0,0.27082114,-52.945746,-66.956337)"
     id="layer1"
     style="stroke:#ffffff;stroke-width:24.00108147;stroke-linejoin:miter;stroke-miterlimit:4;stroke-opacity:1;stroke-dasharray:none">
    <path
       d="m 528.15546,280.71238 2.05592,399.7437 -5.29741,2.08473 -3.35429,8.10713 -7.11074,1.37587 -5.9682,-7.39446 -8.06743,0.34788 -2.93936,-2.88536 -3.14317,0.42577 -7.40155,6.50486 2.9121,20.52626 2.18567,17.53158 3.82069,25.9684 -3.15698,7.08519 -7.92288,-1.84001 -266.18908,-273.3937 1.61,-214.58773 307.96674,2.43512 z"
       id="NV"
       style="fill:#ffffff;fill-opacity:0;stroke:#ffffff;stroke-width:24.00108147;stroke-linejoin:round;stroke-miterlimit:4;stroke-opacity:1;stroke-dasharray:none;marker-start:none" />
  </g>
  <path
     d="m 7.1860377,61.667534 32.0459713,0 c 3.419753,-43.17763 7.108612,-61.22482756 11.650893,0 3.764945,37.97971 7.544987,60.837706 11.862728,0 1.06185,-16.79232 7.73458,1.79937 26.60325,0"
     id="path2985"
     style="fill:none;stroke:#ffffff;stroke-width:3.5;stroke-linecap:butt;stroke-linejoin:round;stroke-miterlimit:4;stroke-opacity:1;stroke-dasharray:none" />
  <g
     id="text3826"
     style="font-size:46.83917236px;font-style:normal;font-variant:normal;font-weight:normal;font-stretch:normal;text-align:start;line-height:125%;letter-spacing:0px;word-spacing:0px;writing-mode:lr-tb;text-anchor:start;fill:#ffffff;fill-opacity:1;stroke:none;font-family:Nimbus Sans L;-inkscape-font-specification:Nimbus Sans L">
    <path
       d="m 125.24207,42.892593 7.02587,0 0,-34.1457563 -7.02587,0 0,23.2322293 -13.53652,-23.2322293 -7.21324,0 0,34.1457563 7.02588,0 0,-23.606942 13.72388,23.606942"
       id="path2996"
       style="font-weight:bold;line-height:89.99999762%;fill:#ffffff;fill-opacity:1;font-family:Nimbus Sans L;-inkscape-font-specification:Nimbus Sans L Bold" />
    <path
       d="m 159.6996,32.30694 c 0.0468,-0.562069 0.0468,-0.796266 0.0468,-1.12414 0,-2.529312 -0.37472,-4.871275 -0.98362,-6.651162 -1.68621,-4.590234 -5.76123,-7.35375 -10.86669,-7.35375 -7.26007,0 -11.7098,5.245996 -11.7098,13.723877 0,8.103169 4.40289,13.068129 11.56928,13.068129 5.66753,0 10.25778,-3.231908 11.70979,-8.196855 l -6.4638,0 c -0.79627,2.014083 -2.623,3.185064 -5.01179,3.185064 -1.87357,0 -3.37243,-0.796267 -4.30921,-2.201441 -0.60891,-0.936783 -0.8431,-2.060926 -0.93678,-4.449722 l 16.95578,0 m -16.8621,-4.356043 c 0.42155,-3.840808 2.06092,-5.761218 4.96495,-5.761218 1.63937,0 3.13822,0.796267 4.07501,2.107763 0.60891,0.936782 0.88994,1.920408 1.03046,3.653455 l -10.07042,0"
       id="path2998"
       style="font-weight:bold;line-height:89.99999762%;fill:#ffffff;fill-opacity:1;font-family:Nimbus Sans L;-inkscape-font-specification:Nimbus Sans L Bold" />
    <path
       d="m 177.62217,42.892593 8.71208,-25.293153 -6.93219,0 -5.10547,18.501473 -5.48019,-18.501473 -6.93219,0 8.8526,25.293153 6.88536,0"
       id="path3000"
       style="font-weight:bold;line-height:89.99999762%;fill:#ffffff;fill-opacity:1;font-family:Nimbus Sans L;-inkscape-font-specification:Nimbus Sans L Bold" />
    <path
       d="m 211.84477,42.096327 c -1.17098,-1.077299 -1.49886,-1.779889 -1.49886,-3.091385 l 0,-14.051752 c 0,-5.152303 -3.51294,-7.775302 -10.35145,-7.775302 -6.83852,0 -10.3983,2.904034 -10.81985,8.758925 l 6.32329,0 c 0.32787,-2.622991 1.40517,-3.466099 4.63707,-3.466099 2.52932,0 3.79398,0.843107 3.79398,2.529316 0,0.843104 -0.42156,1.592532 -1.12414,1.967245 -0.88995,0.468391 -0.88995,0.468392 -4.12185,0.983622 l -2.62299,0.468392 c -5.01179,0.843104 -7.44743,3.419264 -7.44743,7.962659 0,2.1546 0.60891,3.934492 1.77989,5.199149 1.45201,1.498852 3.65345,2.388797 5.90173,2.388797 2.81035,0 5.38651,-1.217821 7.68163,-3.606616 0,1.311496 0.14051,1.779889 0.74942,2.529315 l 7.11956,0 0,-0.796266 m -7.91582,-9.367834 c 0,3.793969 -1.87357,5.948575 -5.19915,5.948575 -2.20144,0 -3.55978,-1.170981 -3.55978,-3.044546 0,-1.967244 1.03047,-2.90403 3.74714,-3.466099 l 2.24828,-0.421553 c 1.73304,-0.327874 2.01408,-0.421553 2.76351,-0.796266 l 0,1.779889"
       id="path3002"
       style="font-weight:bold;line-height:89.99999762%;fill:#ffffff;fill-opacity:1;font-family:Nimbus Sans L;-inkscape-font-specification:Nimbus Sans L Bold" />
    <path
       d="m 232.34349,42.892593 6.55749,0 0,-34.1457563 -6.55749,0 0,12.1313453 c -1.63937,-2.529312 -3.84081,-3.700294 -6.97904,-3.700294 -6.04224,0 -10.63249,5.808065 -10.63249,13.442842 0,3.419256 1.03047,6.885361 2.71667,9.320996 1.73305,2.435634 4.82444,4.028168 7.91582,4.028168 3.13823,0 5.33967,-1.170981 6.97904,-3.653455 l 0,2.576154 m -5.52702,-20.234522 c 3.32558,0 5.52702,3.231908 5.52702,8.056338 0,4.590234 -2.24828,7.775302 -5.52702,7.775302 -3.27874,0 -5.52702,-3.231907 -5.52702,-7.868981 0,-4.683912 2.24828,-7.962659 5.52702,-7.962659"
       id="path3004"
       style="font-weight:bold;line-height:89.99999762%;fill:#ffffff;fill-opacity:1;font-family:Nimbus Sans L;-inkscape-font-specification:Nimbus Sans L Bold" />
    <path
       d="m 266.55146,42.096327 c -1.17098,-1.077299 -1.49885,-1.779889 -1.49885,-3.091385 l 0,-14.051752 c 0,-5.152303 -3.51295,-7.775302 -10.35146,-7.775302 -6.83851,0 -10.39829,2.904034 -10.81985,8.758925 l 6.32329,0 c 0.32788,-2.622991 1.40518,-3.466099 4.63708,-3.466099 2.52931,0 3.79397,0.843107 3.79397,2.529316 0,0.843104 -0.42155,1.592532 -1.12414,1.967245 -0.88994,0.468391 -0.88995,0.468392 -4.12184,0.983622 l -2.623,0.468392 c -5.01178,0.843104 -7.44743,3.419264 -7.44743,7.962659 0,2.1546 0.60891,3.934492 1.77989,5.199149 1.45201,1.498852 3.65346,2.388797 5.90174,2.388797 2.81034,0 5.3865,-1.217821 7.68162,-3.606616 0,1.311496 0.14052,1.779889 0.74943,2.529315 l 7.11955,0 0,-0.796266 m -7.91582,-9.367834 c 0,3.793969 -1.87357,5.948575 -5.19915,5.948575 -2.20143,0 -3.55977,-1.170981 -3.55977,-3.044546 0,-1.967244 1.03046,-2.90403 3.74713,-3.466099 l 2.24828,-0.421553 c 1.73305,-0.327874 2.01409,-0.421553 2.76351,-0.796266 l 0,1.779889"
       id="path3006"
       style="font-weight:bold;line-height:89.99999762%;fill:#ffffff;fill-opacity:1;font-family:Nimbus Sans L;-inkscape-font-specification:Nimbus Sans L Bold" />
    <path
       d="m 129.73863,61.659316 c 0,-3.138221 -0.70259,-5.19915 -2.3888,-7.072715 -2.29512,-2.529313 -6.0891,-3.887651 -11.0072,-3.887651 -8.19685,0 -12.92762,3.840818 -12.92762,10.491974 0,5.292822 2.66984,7.868983 9.60203,9.180478 l 4.7776,0.936784 c 4.68391,0.889943 6.41697,2.201443 6.41697,4.964952 0,2.857186 -2.623,4.590239 -6.88536,4.590239 -4.77759,0 -7.44743,-2.014088 -7.68163,-5.66754 l -6.83852,0 c 0.42156,7.306903 5.43336,11.28824 14.14543,11.28824 8.80576,0 14.00492,-4.121854 14.00492,-11.054044 0,-5.3865 -2.71668,-8.196857 -9.03996,-9.414674 l -5.33967,-1.030462 c -5.01179,-0.983621 -6.4638,-1.967247 -6.4638,-4.449721 0,-2.576152 2.29512,-4.215526 5.90173,-4.215526 4.44972,0 6.9322,1.873571 7.16639,5.339666 l 6.55749,0"
       id="path3008"
       style="font-weight:bold;line-height:89.99999762%;fill:#ffffff;fill-opacity:1;-inkscape-font-specification:Nimbus Sans L Bold" />
    <path
       d="m 157.13808,74.821123 c 0.0468,-0.562069 0.0468,-0.796266 0.0468,-1.12414 0,-2.529312 -0.37471,-4.871275 -0.98362,-6.651162 -1.68621,-4.590234 -5.76123,-7.35375 -10.86669,-7.35375 -7.26006,0 -11.70979,5.245996 -11.70979,13.723877 0,8.103169 4.40289,13.068129 11.56927,13.068129 5.66754,0 10.25778,-3.231907 11.7098,-8.196855 l -6.46381,0 c -0.79627,2.014083 -2.623,3.185064 -5.01179,3.185064 -1.87357,0 -3.37242,-0.796267 -4.30921,-2.201441 -0.6089,-0.936783 -0.8431,-2.060926 -0.93678,-4.449722 l 16.95578,0 m -16.8621,-4.356043 c 0.42155,-3.840808 2.06093,-5.761218 4.96495,-5.761218 1.63937,0 3.13823,0.796267 4.07501,2.107763 0.60891,0.936783 0.88994,1.920408 1.03046,3.653455 l -10.07042,0"
       id="path3010"
       style="font-weight:bold;line-height:89.99999762%;fill:#ffffff;fill-opacity:1;-inkscape-font-specification:Nimbus Sans L Bold" />
    <path
       d="m 168.36265,60.113623 -6.55749,0 0,25.293153 6.55749,0 0,-25.293153 m 0,-8.852603 -6.55749,0 0,5.854896 6.55749,0 0,-5.854896"
       id="path3012"
       style="font-weight:bold;line-height:89.99999762%;fill:#ffffff;fill-opacity:1;-inkscape-font-specification:Nimbus Sans L Bold" />
    <path
       d="m 195.31128,68.263639 c -0.0937,-5.33966 -4.21554,-8.571568 -11.00721,-8.571568 -6.41696,0 -10.3983,3.231908 -10.3983,8.431051 0,1.686208 0.51524,3.138225 1.40518,4.121847 0.88994,0.889943 1.68621,1.311498 4.12185,2.107763 l 7.82214,2.435637 c 1.63937,0.51523 2.20144,1.030463 2.20144,2.060923 0,1.545691 -1.82673,2.482476 -4.87127,2.482476 -1.68621,0 -3.04455,-0.327874 -3.88766,-0.889944 -0.70258,-0.51523 -0.98362,-1.030463 -1.26465,-2.388798 l -6.41697,0 c 0.18736,5.527017 4.26237,8.431051 11.94399,8.431051 3.51293,0 6.18277,-0.749428 8.05634,-2.24828 1.87356,-1.498852 2.9977,-3.840814 2.9977,-6.323288 0,-3.278739 -1.63937,-5.386506 -4.96495,-6.370128 l -8.29053,-2.388797 c -1.82673,-0.56207 -2.29512,-0.936785 -2.29512,-1.967246 0,-1.405173 1.49885,-2.341958 3.79397,-2.341958 3.13822,0 4.68392,1.124142 4.73076,3.419259 l 6.32329,0"
       id="path3014"
       style="font-weight:bold;line-height:89.99999762%;fill:#ffffff;fill-opacity:1;-inkscape-font-specification:Nimbus Sans L Bold" />
    <path
       d="m 200.54043,60.113623 0,25.293153 6.55748,0 0,-15.175891 c 0,-3.091383 1.68622,-4.964953 4.49656,-4.964953 2.20144,0 3.55978,1.26466 3.55978,3.278742 l 0,16.862102 6.55749,0 0,-15.175891 c 0,-3.091383 1.68621,-4.964953 4.49656,-4.964953 2.20144,0 3.55977,1.26466 3.55977,3.278742 l 0,16.862102 6.55749,0 0,-17.892563 c 0,-4.918109 -2.99771,-7.822142 -8.05634,-7.822142 -3.18506,0 -5.43335,1.124143 -7.40059,3.747134 -1.21782,-2.388796 -3.74714,-3.747134 -6.88536,-3.747134 -2.90402,0 -4.7776,0.983625 -6.9322,3.559777 l 0,-3.138225 -6.51064,0"
       id="path3016"
       style="font-weight:bold;line-height:89.99999762%;fill:#ffffff;fill-opacity:1;-inkscape-font-specification:Nimbus Sans L Bold" />
    <path
       d="m 253.45333,59.692071 c -7.72846,0 -12.45922,5.105478 -12.45922,13.396003 0,8.337364 4.73076,13.396003 12.50606,13.396003 7.68161,0 12.50606,-5.105477 12.50606,-13.208646 0,-8.57156 -4.63709,-13.58336 -12.5529,-13.58336 m 0.0468,5.292826 c 3.60661,0 5.94857,3.231908 5.94857,8.196855 0,4.730752 -2.43564,8.009499 -5.94857,8.009499 -3.55978,0 -5.94858,-3.278747 -5.94858,-8.103177 0,-4.82443 2.3888,-8.103177 5.94858,-8.103177"
       id="path3018"
       style="font-weight:bold;line-height:89.99999762%;fill:#ffffff;fill-opacity:1;-inkscape-font-specification:Nimbus Sans L Bold" />
    <path
       d="m 275.10838,51.26102 -3.93449,0 0,34.145756 3.93449,0 0,-34.145756"
       id="path3020"
       style="line-height:89.99999762%;fill:#ffffff;fill-opacity:1;font-family:Nimbus Sans L;-inkscape-font-specification:Nimbus Sans L" />
    <path
       d="m 291.15812,60.160463 c -6.88535,0 -11.05404,4.918121 -11.05404,13.161807 0,8.243686 4.12185,13.161807 11.10088,13.161807 6.88535,0 11.10088,-4.918121 11.10088,-12.97445 0,-8.477882 -4.07501,-13.349164 -11.14772,-13.349164 m 0.0468,3.606616 c 4.40288,0 7.02587,3.606622 7.02587,9.695708 0,5.761213 -2.71667,9.414674 -7.02587,9.414674 -4.35604,0 -7.02588,-3.606622 -7.02588,-9.555191 0,-5.90173 2.66984,-9.555191 7.02588,-9.555191"
       id="path3022"
       style="line-height:89.99999762%;fill:#ffffff;fill-opacity:1;font-family:Nimbus Sans L;-inkscape-font-specification:Nimbus Sans L" />
    <path
       d="m 323.78819,60.86305 0,3.559777 c -1.96724,-2.904026 -4.35605,-4.262364 -7.49427,-4.262364 -6.2296,0 -10.44513,5.433351 -10.44513,13.396003 0,4.028165 1.0773,7.306913 3.09138,9.648869 1.82673,2.060922 4.44973,3.278742 7.02588,3.278742 3.09138,0 5.24599,-1.3115 7.44743,-4.402882 l 0,1.264658 c 0,3.325578 -0.42156,5.339667 -1.40518,6.698001 -1.03046,1.452013 -3.04455,2.29512 -5.43334,2.29512 -1.77989,0 -3.37242,-0.468393 -4.44972,-1.311497 -0.88995,-0.702587 -1.26466,-1.358337 -1.49886,-2.81035 l -3.98133,0 c 0.42156,4.637073 4.02818,7.400589 9.78939,7.400589 3.65345,0 6.79168,-1.170981 8.38421,-3.138225 1.87357,-2.248278 2.57616,-5.339671 2.57616,-11.100883 l 0,-20.515558 -3.60662,0 m -7.07271,2.904029 c 4.21552,0 6.698,3.559783 6.698,9.695708 0,5.854891 -2.52932,9.414674 -6.65117,9.414674 -4.26236,0 -6.83851,-3.606622 -6.83851,-9.555191 0,-5.90173 2.62299,-9.555191 6.79168,-9.555191"
       id="path3024"
       style="line-height:89.99999762%;fill:#ffffff;fill-opacity:1;font-family:Nimbus Sans L;-inkscape-font-specification:Nimbus Sans L" />
    <path
       d="m 337.58891,60.86305 -3.88765,0 0,24.543726 3.88765,0 0,-24.543726 m 0,-9.60203 -3.93449,0 0,4.918113 3.93449,0 0,-4.918113"
       id="path3026"
       style="line-height:89.99999762%;fill:#ffffff;fill-opacity:1;font-family:Nimbus Sans L;-inkscape-font-specification:Nimbus Sans L" />
    <path
       d="m 363.05332,69.106744 c -0.18735,-2.388795 -0.70259,-3.934491 -1.63937,-5.292826 -1.68621,-2.295117 -4.63708,-3.653455 -8.05634,-3.653455 -6.60431,0 -10.91352,5.245995 -10.91352,13.396003 0,7.915812 4.21553,12.927611 10.86669,12.927611 5.85489,0 9.55519,-3.512944 10.02358,-9.508352 l -3.93449,0 c -0.65575,3.934487 -2.66984,5.901736 -5.99542,5.901736 -4.3092,0 -6.88535,-3.512944 -6.88535,-9.320995 0,-6.135926 2.52931,-9.789387 6.79168,-9.789387 3.27873,0 5.33966,1.920409 5.80805,5.339665 l 3.93449,0"
       id="path3028"
       style="line-height:89.99999762%;fill:#ffffff;fill-opacity:1;font-family:Nimbus Sans L;-inkscape-font-specification:Nimbus Sans L" />
    <path
       d="m 389.47062,83.111657 c -0.42156,0.09368 -0.60891,0.09368 -0.84311,0.09368 -1.35833,0 -2.10776,-0.702588 -2.10776,-1.920406 l 0,-14.426465 c 0,-4.356039 -3.18507,-6.698001 -9.22732,-6.698001 -3.55977,0 -6.51064,1.030463 -8.15001,2.857189 -1.12414,1.264656 -1.59254,2.669835 -1.68621,5.10547 l 3.93449,0 c 0.32787,-2.997704 2.10776,-4.356043 5.76121,-4.356043 3.51294,0 5.48019,1.311499 5.48019,3.653455 l 0,1.030462 c 0,1.639369 -0.98363,2.341959 -4.07501,2.716672 -5.52702,0.702587 -6.37013,0.889945 -7.86898,1.498854 -2.85719,1.170978 -4.30921,3.372423 -4.30921,6.557484 0,4.449717 3.09139,7.260071 8.05634,7.260071 3.09138,0 5.57387,-1.077303 8.33737,-3.606616 0.28104,2.482474 1.49886,3.606616 4.02817,3.606616 0.79627,0 1.40518,-0.09368 2.66984,-0.421552 l 0,-2.950868 m -6.83852,-5.433344 c 0,1.311496 -0.37472,2.107764 -1.5457,3.185064 -1.59253,1.452013 -3.51294,2.201441 -5.80805,2.201441 -3.04455,0 -4.82444,-1.452017 -4.82444,-3.934491 0,-2.576152 1.73306,-3.887652 5.90174,-4.49656 4.12184,-0.56207 4.96495,-0.749428 6.27645,-1.358336 l 0,4.402882"
       id="path3030"
       style="line-height:89.99999762%;fill:#ffffff;fill-opacity:1;font-family:Nimbus Sans L;-inkscape-font-specification:Nimbus Sans L" />
    <path
       d="m 397.6038,51.26102 -3.93449,0 0,34.145756 3.93449,0 0,-34.145756"
       id="path3032"
       style="line-height:89.99999762%;fill:#ffffff;fill-opacity:1;font-family:Nimbus Sans L;-inkscape-font-specification:Nimbus Sans L" />
    <path
       d="m 112.08026,93.77521 -7.02588,0 0,34.14576 23.37275,0 0,-5.8549 -16.34687,0 0,-28.29086"
       id="path3034"
       style="font-weight:bold;line-height:89.99999762%;fill:#ffffff;fill-opacity:1;-inkscape-font-specification:Nimbus Sans L Bold" />
    <path
       d="m 154.48508,127.1247 c -1.17098,-1.0773 -1.49885,-1.77989 -1.49885,-3.09138 l 0,-14.05176 c 0,-5.1523 -3.51295,-7.7753 -10.35146,-7.7753 -6.83851,0 -10.3983,2.90404 -10.81985,8.75893 l 6.32329,0 c 0.32787,-2.62299 1.40518,-3.4661 4.63708,-3.4661 2.52931,0 3.79397,0.8431 3.79397,2.52931 0,0.84311 -0.42155,1.59254 -1.12414,1.96725 -0.88994,0.46839 -0.88995,0.46839 -4.12185,0.98362 l -2.62299,0.46839 c -5.01179,0.84311 -7.44743,3.41927 -7.44743,7.96266 0,2.1546 0.60891,3.93449 1.77989,5.19915 1.45201,1.49885 3.65346,2.3888 5.90174,2.3888 2.81034,0 5.3865,-1.21782 7.68162,-3.60662 0,1.3115 0.14052,1.77989 0.74943,2.52932 l 7.11955,0 0,-0.79627 m -7.91582,-9.36783 c 0,3.79397 -1.87357,5.94857 -5.19915,5.94857 -2.20144,0 -3.55977,-1.17098 -3.55977,-3.04454 0,-1.96725 1.03046,-2.90403 3.74713,-3.4661 l 2.24828,-0.42156 c 1.73305,-0.32787 2.01408,-0.42155 2.76351,-0.79626 l 0,1.77989"
       id="path3036"
       style="font-weight:bold;line-height:89.99999762%;fill:#ffffff;fill-opacity:1;-inkscape-font-specification:Nimbus Sans L Bold" />
    <path
       d="m 158.77745,93.77521 0,34.14576 6.55748,0 0,-2.57616 c 1.59253,2.48248 3.79398,3.65346 6.97904,3.65346 6.04225,0 10.63249,-5.76123 10.63249,-13.39601 0,-3.41925 -1.03046,-6.88536 -2.71667,-9.32099 -1.73305,-2.48247 -4.82444,-4.07501 -7.91582,-4.07501 -3.13822,0 -5.38651,1.17098 -6.97904,3.7003 l 0,-12.13135 -6.55748,0 m 12.08451,13.91123 c 3.2319,0 5.52702,3.27875 5.52702,7.96266 0,4.59024 -2.29512,7.86898 -5.52702,7.86898 -3.32558,0 -5.52703,-3.18506 -5.52703,-8.00949 0,-4.59024 2.24829,-7.82215 5.52703,-7.82215"
       id="path3038"
       style="font-weight:bold;line-height:89.99999762%;fill:#ffffff;fill-opacity:1;-inkscape-font-specification:Nimbus Sans L Bold" />
    <path
       d="m 197.3883,102.67465 c -6.88536,0 -11.05405,4.91812 -11.05405,13.16181 0,8.24369 4.12186,13.16181 11.10088,13.16181 6.88536,0 11.10089,-4.91812 11.10089,-12.97445 0,-8.47788 -4.07502,-13.34917 -11.14772,-13.34917 m 0.0468,3.60662 c 4.40288,0 7.02588,3.60662 7.02588,9.69571 0,5.76121 -2.71668,9.41467 -7.02588,9.41467 -4.35603,0 -7.02587,-3.60662 -7.02587,-9.55519 0,-5.90173 2.66984,-9.55519 7.02587,-9.55519"
       id="path3040"
       style="line-height:89.99999762%;fill:#ffffff;fill-opacity:1;font-family:Nimbus Sans L;-inkscape-font-specification:Nimbus Sans L" />
    <path
       d="m 213.95253,103.37724 0,24.54373 3.93449,0 0,-12.74026 c 0,-3.51293 0.88995,-5.80806 2.76351,-7.16639 1.21782,-0.88994 2.3888,-1.17098 5.10547,-1.21782 l 0,-3.98133 c -0.65575,-0.0937 -0.98362,-0.14052 -1.49885,-0.14052 -2.52932,0 -4.44973,1.49886 -6.698,5.15231 l 0,-4.44972 -3.60662,0"
       id="path3042"
       style="line-height:89.99999762%;fill:#ffffff;fill-opacity:1;font-family:Nimbus Sans L;-inkscape-font-specification:Nimbus Sans L" />
    <path
       d="m 251.42313,125.62585 c -0.42155,0.0937 -0.6089,0.0937 -0.8431,0.0937 -1.35833,0 -2.10776,-0.70259 -2.10776,-1.92041 l 0,-14.42647 c 0,-4.35603 -3.18507,-6.698 -9.22732,-6.698 -3.55977,0 -6.51065,1.03047 -8.15002,2.85719 -1.12413,1.26466 -1.59253,2.66984 -1.68621,5.10547 l 3.93449,0 c 0.32788,-2.9977 2.10777,-4.35604 5.76122,-4.35604 3.51294,0 5.48019,1.3115 5.48019,3.65345 l 0,1.03047 c 0,1.63937 -0.98363,2.34196 -4.07501,2.71667 -5.52702,0.70259 -6.37013,0.88994 -7.86898,1.49885 -2.85719,1.17098 -4.30921,3.37243 -4.30921,6.55749 0,4.44971 3.09139,7.26007 8.05634,7.26007 3.09138,0 5.57386,-1.07731 8.33737,-3.60662 0.28104,2.48248 1.49886,3.60662 4.02817,3.60662 0.79627,0 1.40518,-0.0937 2.66983,-0.42155 l 0,-2.95087 m -6.83851,-5.43335 c 0,1.3115 -0.37472,2.10777 -1.5457,3.18507 -1.59253,1.45201 -3.51294,2.20144 -5.80805,2.20144 -3.04455,0 -4.82444,-1.45202 -4.82444,-3.93449 0,-2.57615 1.73305,-3.88765 5.90174,-4.49656 4.12184,-0.56207 4.96495,-0.74943 6.27645,-1.35834 l 0,4.40288"
       id="path3044"
       style="line-height:89.99999762%;fill:#ffffff;fill-opacity:1;font-family:Nimbus Sans L;-inkscape-font-specification:Nimbus Sans L" />
    <path
       d="m 264.33392,103.37724 -4.02817,0 0,-6.74484 -3.88765,0 0,6.74484 -3.32558,0 0,3.18506 3.32558,0 0,18.54832 c 0,2.48247 1.68621,3.88765 4.73075,3.88765 0.93679,0 1.87357,-0.0937 3.18507,-0.32788 l 0,-3.27874 c -0.51523,0.14052 -1.12414,0.18736 -1.87357,0.18736 -1.68621,0 -2.1546,-0.46839 -2.1546,-2.20144 l 0,-16.81527 4.02817,0 0,-3.18506"
       id="path3046"
       style="line-height:89.99999762%;fill:#ffffff;fill-opacity:1;font-family:Nimbus Sans L;-inkscape-font-specification:Nimbus Sans L" />
    <path
       d="m 278.16757,102.67465 c -6.88535,0 -11.05405,4.91812 -11.05405,13.16181 0,8.24369 4.12186,13.16181 11.10089,13.16181 6.88535,0 11.10088,-4.91812 11.10088,-12.97445 0,-8.47788 -4.07501,-13.34917 -11.14772,-13.34917 m 0.0468,3.60662 c 4.40288,0 7.02587,3.60662 7.02587,9.69571 0,5.76121 -2.71667,9.41467 -7.02587,9.41467 -4.35604,0 -7.02588,-3.60662 -7.02588,-9.55519 0,-5.90173 2.66984,-9.55519 7.02588,-9.55519"
       id="path3048"
       style="line-height:89.99999762%;fill:#ffffff;fill-opacity:1;font-family:Nimbus Sans L;-inkscape-font-specification:Nimbus Sans L" />
    <path
       d="m 294.7318,103.37724 0,24.54373 3.93449,0 0,-12.74026 c 0,-3.51293 0.88995,-5.80806 2.76352,-7.16639 1.21781,-0.88994 2.3888,-1.17098 5.10547,-1.21782 l 0,-3.98133 c -0.65575,-0.0937 -0.98363,-0.14052 -1.49886,-0.14052 -2.52931,0 -4.44972,1.49886 -6.698,5.15231 l 0,-4.44972 -3.60662,0"
       id="path3050"
       style="line-height:89.99999762%;fill:#ffffff;fill-opacity:1;font-family:Nimbus Sans L;-inkscape-font-specification:Nimbus Sans L" />
    <path
       d="m 325.31705,103.37724 -6.79168,19.11038 -6.27644,-19.11038 -4.16869,0 8.29053,24.63741 -1.49885,3.88765 c -0.60891,1.73304 -1.49886,2.38879 -3.13823,2.38879 -0.56207,0 -1.21781,-0.0937 -2.06092,-0.28103 l 0,3.51294 c 0.79627,0.42155 1.59253,0.60891 2.62299,0.60891 1.26466,0 2.623,-0.42156 3.65346,-1.17098 1.21782,-0.88995 1.92041,-1.92041 2.66983,-3.88765 l 10.91353,-29.69604 -4.21553,0"
       id="path3052"
       style="line-height:89.99999762%;fill:#ffffff;fill-opacity:1;font-family:Nimbus Sans L;-inkscape-font-specification:Nimbus Sans L" />
  </g>
</svg>
